<?xml version="1.0" encoding="utf-8" standalone="no"?>
<!DOCTYPE svg PUBLIC "-//W3C//DTD SVG 1.1//EN"
  "http://www.w3.org/Graphics/SVG/1.1/DTD/svg11.dtd">
<svg xmlns:xlink="http://www.w3.org/1999/xlink" width="720pt" height="374.4pt" viewBox="0 0 720 374.4" xmlns="http://www.w3.org/2000/svg" version="1.1">
 <metadata>
  <rdf:RDF xmlns:dc="http://purl.org/dc/elements/1.1/" xmlns:cc="http://creativecommons.org/ns#" xmlns:rdf="http://www.w3.org/1999/02/22-rdf-syntax-ns#">
   <cc:Work>
    <dc:type rdf:resource="http://purl.org/dc/dcmitype/StillImage"/>
    <dc:format>image/svg+xml</dc:format>
    <dc:creator>
     <cc:Agent>
      <dc:title>structured-robustness-reporting-v1</dc:title>
     </cc:Agent>
    </dc:creator>
   </cc:Work>
  </rdf:RDF>
 </metadata>
 <defs>
  <style type="text/css">*{stroke-linejoin: round; stroke-linecap: butt}</style>
 </defs>
 <g id="figure_1">
  <g id="patch_1">
   <path d="M 0 374.4 
L 720 374.4 
L 720 0 
L 0 0 
z
" style="fill: #ffffff"/>
  </g>
  <g id="axes_1">
   <g id="patch_2">
    <path d="M 45.99649 337.758276 
L 716.99976 337.758276 
L 716.99976 19.25499 
L 45.99649 19.25499 
z
" style="fill: #ffffff"/>
   </g>
   <g id="patch_3">
    <path d="M 76.496639 337.758276 
L 160.482555 337.758276 
L 160.482555 198.606355 
L 76.496639 198.606355 
z
" clip-path="url(#pb2c85a5046)" style="fill: #697586"/>
   </g>
   <g id="patch_4">
    <path d="M 297.512208 337.758276 
L 381.498125 337.758276 
L 381.498125 213.436605 
L 297.512208 213.436605 
z
" clip-path="url(#pb2c85a5046)" style="fill: #697586"/>
   </g>
   <g id="patch_5">
    <path d="M 518.527778 337.758276 
L 602.513695 337.758276 
L 602.513695 153.168993 
L 518.527778 153.168993 
z
" clip-path="url(#pb2c85a5046)" style="fill: #697586"/>
   </g>
   <g id="patch_6">
    <path d="M 160.482555 337.758276 
L 244.468472 337.758276 
L 244.468472 86.590636 
L 160.482555 86.590636 
z
" clip-path="url(#pb2c85a5046)" style="fill: #14886c"/>
   </g>
   <g id="patch_7">
    <path d="M 381.498125 337.758276 
L 465.484042 337.758276 
L 465.484042 86.590636 
L 381.498125 86.590636 
z
" clip-path="url(#pb2c85a5046)" style="fill: #14886c"/>
   </g>
   <g id="patch_8">
    <path d="M 602.513695 337.758276 
L 686.499611 337.758276 
L 686.499611 337.758276 
L 602.513695 337.758276 
z
" clip-path="url(#pb2c85a5046)" style="fill: #14886c"/>
   </g>
   <g id="matplotlib.axis_1">
    <g id="xtick_1">
     <g id="line2d_1">
      <defs>
       <path id="meea67c2f69" d="M 0 0 
L 0 3.5 
" style="stroke: #000000; stroke-width: 0.8"/>
      </defs>
      <g>
       <use xlink:href="#meea67c2f69" x="160.482555" y="337.758276" style="stroke: #000000; stroke-width: 0.8"/>
      </g>
     </g>
     <g id="text_1">
      <!-- Успех задачи -->
      <g transform="translate(121.832165 353.115698) scale(0.11 -0.11)">
       <defs>
        <path id="DejaVuSans-3b7" d="M 2047 566 
Q 1981 409 1881 291 
Q 1634 0 850 0 
L 609 0 
L 609 531 
L 806 531 
Q 1178 531 1322 616 
Q 1409 669 1466 800 
L 1606 1131 
L 109 4666 
L 788 4666 
L 1947 1928 
L 3113 4666 
L 3791 4666 
L 2047 566 
z
" transform="scale(0.015625)"/>
        <path id="DejaVuSans-3d5" d="M 3122 3366 
L 3122 2828 
Q 2878 2963 2633 3030 
Q 2388 3097 2138 3097 
Q 1578 3097 1268 2742 
Q 959 2388 959 1747 
Q 959 1106 1268 751 
Q 1578 397 2138 397 
Q 2388 397 2633 464 
Q 2878 531 3122 666 
L 3122 134 
Q 2881 22 2623 -34 
Q 2366 -91 2075 -91 
Q 1284 -91 818 406 
Q 353 903 353 1747 
Q 353 2603 823 3093 
Q 1294 3584 2113 3584 
Q 2378 3584 2631 3529 
Q 2884 3475 3122 3366 
z
" transform="scale(0.015625)"/>
        <path id="DejaVuSans-3d3" d="M 3603 3500 
L 3603 0 
L 3025 0 
L 3025 3041 
L 1159 3041 
L 1159 0 
L 581 0 
L 581 3500 
L 3603 3500 
z
" transform="scale(0.015625)"/>
        <path id="DejaVuSans-3c9" d="M 3597 1894 
L 3597 1613 
L 953 1613 
Q 991 1019 1311 708 
Q 1631 397 2203 397 
Q 2534 397 2845 478 
Q 3156 559 3463 722 
L 3463 178 
Q 3153 47 2828 -22 
Q 2503 -91 2169 -91 
Q 1331 -91 842 396 
Q 353 884 353 1716 
Q 353 2575 817 3079 
Q 1281 3584 2069 3584 
Q 2775 3584 3186 3129 
Q 3597 2675 3597 1894 
z
M 3022 2063 
Q 3016 2534 2758 2815 
Q 2500 3097 2075 3097 
Q 1594 3097 1305 2825 
Q 1016 2553 972 2059 
L 3022 2063 
z
" transform="scale(0.015625)"/>
        <path id="DejaVuSans-3d9" d="M 3513 3500 
L 2247 1797 
L 3578 0 
L 2900 0 
L 1881 1375 
L 863 0 
L 184 0 
L 1544 1831 
L 300 3500 
L 978 3500 
L 1906 2253 
L 2834 3500 
L 3513 3500 
z
" transform="scale(0.015625)"/>
        <path id="DejaVuSans-3" transform="scale(0.015625)"/>
        <path id="DejaVuSans-3cb" d="M 2206 1888 
Q 2594 1813 2809 1584 
Q 3025 1356 3025 1019 
Q 3025 478 2622 193 
Q 2219 -91 1475 -91 
Q 1225 -91 961 -47 
Q 697 -3 416 84 
L 416 619 
Q 638 503 903 445 
Q 1169 388 1459 388 
Q 1931 388 2195 563 
Q 2459 738 2459 1019 
Q 2459 1294 2225 1461 
Q 1991 1628 1563 1628 
L 1100 1628 
L 1100 2103 
L 1584 2103 
Q 1947 2103 2158 2242 
Q 2369 2381 2369 2600 
Q 2369 2800 2151 2944 
Q 1934 3088 1563 3088 
Q 1341 3088 1089 3047 
Q 838 3006 534 2916 
L 534 3438 
Q 841 3513 1106 3550 
Q 1372 3588 1609 3588 
Q 2222 3588 2576 3342 
Q 2931 3097 2931 2656 
Q 2931 2366 2743 2164 
Q 2556 1963 2206 1888 
z
" transform="scale(0.015625)"/>
        <path id="DejaVuSans-3c4" d="M 2194 1759 
Q 1497 1759 1228 1600 
Q 959 1441 959 1056 
Q 959 750 1161 570 
Q 1363 391 1709 391 
Q 2188 391 2477 730 
Q 2766 1069 2766 1631 
L 2766 1759 
L 2194 1759 
z
M 3341 1997 
L 3341 0 
L 2766 0 
L 2766 531 
Q 2569 213 2275 61 
Q 1981 -91 1556 -91 
Q 1019 -91 701 211 
Q 384 513 384 1019 
Q 384 1609 779 1909 
Q 1175 2209 1959 2209 
L 2766 2209 
L 2766 2266 
Q 2766 2663 2505 2880 
Q 2244 3097 1772 3097 
Q 1472 3097 1187 3025 
Q 903 2953 641 2809 
L 641 3341 
Q 956 3463 1253 3523 
Q 1550 3584 1831 3584 
Q 2591 3584 2966 3190 
Q 3341 2797 3341 1997 
z
" transform="scale(0.015625)"/>
        <path id="DejaVuSans-3c8" d="M 1384 459 
L 3053 459 
L 3053 3041 
L 1844 3041 
L 1844 2603 
Q 1844 1316 1475 628 
L 1384 459 
z
M 550 459 
Q 834 584 959 850 
Q 1266 1509 1266 2838 
L 1266 3500 
L 3631 3500 
L 3631 459 
L 4091 459 
L 4091 -884 
L 3631 -884 
L 3631 0 
L 794 0 
L 794 -884 
L 334 -884 
L 334 459 
L 550 459 
z
" transform="scale(0.015625)"/>
        <path id="DejaVuSans-3db" d="M 2625 0 
L 2625 1472 
L 1553 1472 
Q 1075 1472 756 1769 
Q 469 2038 469 2613 
L 469 3500 
L 1044 3500 
L 1044 2666 
Q 1044 2300 1206 2116 
Q 1372 1931 1697 1931 
L 2625 1931 
L 2625 3500 
L 3200 3500 
L 3200 0 
L 2625 0 
z
" transform="scale(0.015625)"/>
        <path id="DejaVuSans-3cc" d="M 3578 3500 
L 3578 0 
L 3006 0 
L 3006 2809 
L 1319 0 
L 581 0 
L 581 3500 
L 1153 3500 
L 1153 697 
L 2838 3500 
L 3578 3500 
z
" transform="scale(0.015625)"/>
       </defs>
       <use xlink:href="#DejaVuSans-3b7"/>
       <use xlink:href="#DejaVuSans-3d5" transform="translate(60.9375 0)"/>
       <use xlink:href="#DejaVuSans-3d3" transform="translate(115.921875 0)"/>
       <use xlink:href="#DejaVuSans-3c9" transform="translate(181.296875 0)"/>
       <use xlink:href="#DejaVuSans-3d9" transform="translate(242.828125 0)"/>
       <use xlink:href="#DejaVuSans-3" transform="translate(302.015625 0)"/>
       <use xlink:href="#DejaVuSans-3cb" transform="translate(333.796875 0)"/>
       <use xlink:href="#DejaVuSans-3c4" transform="translate(386.96875 0)"/>
       <use xlink:href="#DejaVuSans-3c8" transform="translate(448.25 0)"/>
       <use xlink:href="#DejaVuSans-3c4" transform="translate(517.390625 0)"/>
       <use xlink:href="#DejaVuSans-3db" transform="translate(578.671875 0)"/>
       <use xlink:href="#DejaVuSans-3cc" transform="translate(637.75 0)"/>
      </g>
     </g>
    </g>
    <g id="xtick_2">
     <g id="line2d_2">
      <g>
       <use xlink:href="#meea67c2f69" x="381.498125" y="337.758276" style="stroke: #000000; stroke-width: 0.8"/>
      </g>
     </g>
     <g id="text_2">
      <!-- Успех без resolved -->
      <g transform="translate(328.277031 354.404975) scale(0.11 -0.11)">
       <defs>
        <path id="DejaVuSans-3c5" d="M 1991 3584 
Q 2741 3584 3169 3096 
Q 3597 2609 3597 1747 
Q 3597 888 3169 398 
Q 2741 -91 1991 -91 
Q 1238 -91 822 384 
Q 406 859 384 1747 
L 366 2463 
Q 350 2834 350 2963 
Q 350 3463 531 3831 
Q 816 4409 1308 4659 
Q 1800 4909 2625 4916 
Q 3006 4919 3175 4972 
L 3334 4516 
Q 3181 4453 3041 4450 
L 2259 4397 
Q 1866 4369 1628 4231 
Q 1006 3866 947 3388 
L 925 3213 
Q 1331 3584 1991 3584 
z
M 1991 3097 
Q 1528 3097 1259 2736 
Q 991 2375 991 1747 
Q 991 1119 1258 758 
Q 1525 397 1991 397 
Q 2450 397 2719 759 
Q 2988 1122 2988 1747 
Q 2988 2369 2719 2733 
Q 2450 3097 1991 3097 
z
" transform="scale(0.015625)"/>
        <path id="DejaVuSans-55" d="M 2631 2963 
Q 2534 3019 2420 3045 
Q 2306 3072 2169 3072 
Q 1681 3072 1420 2755 
Q 1159 2438 1159 1844 
L 1159 0 
L 581 0 
L 581 3500 
L 1159 3500 
L 1159 2956 
Q 1341 3275 1631 3429 
Q 1922 3584 2338 3584 
Q 2397 3584 2469 3576 
Q 2541 3569 2628 3553 
L 2631 2963 
z
" transform="scale(0.015625)"/>
        <path id="DejaVuSans-48" d="M 3597 1894 
L 3597 1613 
L 953 1613 
Q 991 1019 1311 708 
Q 1631 397 2203 397 
Q 2534 397 2845 478 
Q 3156 559 3463 722 
L 3463 178 
Q 3153 47 2828 -22 
Q 2503 -91 2169 -91 
Q 1331 -91 842 396 
Q 353 884 353 1716 
Q 353 2575 817 3079 
Q 1281 3584 2069 3584 
Q 2775 3584 3186 3129 
Q 3597 2675 3597 1894 
z
M 3022 2063 
Q 3016 2534 2758 2815 
Q 2500 3097 2075 3097 
Q 1594 3097 1305 2825 
Q 1016 2553 972 2059 
L 3022 2063 
z
" transform="scale(0.015625)"/>
        <path id="DejaVuSans-56" d="M 2834 3397 
L 2834 2853 
Q 2591 2978 2328 3040 
Q 2066 3103 1784 3103 
Q 1356 3103 1142 2972 
Q 928 2841 928 2578 
Q 928 2378 1081 2264 
Q 1234 2150 1697 2047 
L 1894 2003 
Q 2506 1872 2764 1633 
Q 3022 1394 3022 966 
Q 3022 478 2636 193 
Q 2250 -91 1575 -91 
Q 1294 -91 989 -36 
Q 684 19 347 128 
L 347 722 
Q 666 556 975 473 
Q 1284 391 1588 391 
Q 1994 391 2212 530 
Q 2431 669 2431 922 
Q 2431 1156 2273 1281 
Q 2116 1406 1581 1522 
L 1381 1569 
Q 847 1681 609 1914 
Q 372 2147 372 2553 
Q 372 3047 722 3315 
Q 1072 3584 1716 3584 
Q 2034 3584 2315 3537 
Q 2597 3491 2834 3397 
z
" transform="scale(0.015625)"/>
        <path id="DejaVuSans-52" d="M 1959 3097 
Q 1497 3097 1228 2736 
Q 959 2375 959 1747 
Q 959 1119 1226 758 
Q 1494 397 1959 397 
Q 2419 397 2687 759 
Q 2956 1122 2956 1747 
Q 2956 2369 2687 2733 
Q 2419 3097 1959 3097 
z
M 1959 3584 
Q 2709 3584 3137 3096 
Q 3566 2609 3566 1747 
Q 3566 888 3137 398 
Q 2709 -91 1959 -91 
Q 1206 -91 779 398 
Q 353 888 353 1747 
Q 353 2609 779 3096 
Q 1206 3584 1959 3584 
z
" transform="scale(0.015625)"/>
        <path id="DejaVuSans-4f" d="M 603 4863 
L 1178 4863 
L 1178 0 
L 603 0 
L 603 4863 
z
" transform="scale(0.015625)"/>
        <path id="DejaVuSans-59" d="M 191 3500 
L 800 3500 
L 1894 563 
L 2988 3500 
L 3597 3500 
L 2284 0 
L 1503 0 
L 191 3500 
z
" transform="scale(0.015625)"/>
        <path id="DejaVuSans-47" d="M 2906 2969 
L 2906 4863 
L 3481 4863 
L 3481 0 
L 2906 0 
L 2906 525 
Q 2725 213 2448 61 
Q 2172 -91 1784 -91 
Q 1150 -91 751 415 
Q 353 922 353 1747 
Q 353 2572 751 3078 
Q 1150 3584 1784 3584 
Q 2172 3584 2448 3432 
Q 2725 3281 2906 2969 
z
M 947 1747 
Q 947 1113 1208 752 
Q 1469 391 1925 391 
Q 2381 391 2643 752 
Q 2906 1113 2906 1747 
Q 2906 2381 2643 2742 
Q 2381 3103 1925 3103 
Q 1469 3103 1208 2742 
Q 947 2381 947 1747 
z
" transform="scale(0.015625)"/>
       </defs>
       <use xlink:href="#DejaVuSans-3b7"/>
       <use xlink:href="#DejaVuSans-3d5" transform="translate(60.9375 0)"/>
       <use xlink:href="#DejaVuSans-3d3" transform="translate(115.921875 0)"/>
       <use xlink:href="#DejaVuSans-3c9" transform="translate(181.296875 0)"/>
       <use xlink:href="#DejaVuSans-3d9" transform="translate(242.828125 0)"/>
       <use xlink:href="#DejaVuSans-3" transform="translate(302.015625 0)"/>
       <use xlink:href="#DejaVuSans-3c5" transform="translate(333.796875 0)"/>
       <use xlink:href="#DejaVuSans-3c9" transform="translate(395.46875 0)"/>
       <use xlink:href="#DejaVuSans-3cb" transform="translate(457 0)"/>
       <use xlink:href="#DejaVuSans-3" transform="translate(510.171875 0)"/>
       <use xlink:href="#DejaVuSans-55" transform="translate(541.953125 0)"/>
       <use xlink:href="#DejaVuSans-48" transform="translate(580.859375 0)"/>
       <use xlink:href="#DejaVuSans-56" transform="translate(642.390625 0)"/>
       <use xlink:href="#DejaVuSans-52" transform="translate(694.484375 0)"/>
       <use xlink:href="#DejaVuSans-4f" transform="translate(755.671875 0)"/>
       <use xlink:href="#DejaVuSans-59" transform="translate(783.453125 0)"/>
       <use xlink:href="#DejaVuSans-48" transform="translate(842.640625 0)"/>
       <use xlink:href="#DejaVuSans-47" transform="translate(904.171875 0)"/>
      </g>
      <!-- превышения |x| -->
      <g transform="translate(335.838672 367.656108) scale(0.11 -0.11)">
       <defs>
        <path id="DejaVuSans-3d4" d="M 1159 525 
L 1159 -1331 
L 581 -1331 
L 581 3500 
L 1159 3500 
L 1159 2969 
Q 1341 3281 1617 3432 
Q 1894 3584 2278 3584 
Q 2916 3584 3314 3078 
Q 3713 2572 3713 1747 
Q 3713 922 3314 415 
Q 2916 -91 2278 -91 
Q 1894 -91 1617 61 
Q 1341 213 1159 525 
z
M 3116 1747 
Q 3116 2381 2855 2742 
Q 2594 3103 2138 3103 
Q 1681 3103 1420 2742 
Q 1159 2381 1159 1747 
Q 1159 1113 1420 752 
Q 1681 391 2138 391 
Q 2594 391 2855 752 
Q 3116 1113 3116 1747 
z
" transform="scale(0.015625)"/>
        <path id="DejaVuSans-3c6" d="M 1156 1613 
L 1156 459 
L 1975 459 
Q 2369 459 2575 607 
Q 2781 756 2781 1038 
Q 2781 1319 2575 1466 
Q 2369 1613 1975 1613 
L 1156 1613 
z
M 1156 3041 
L 1156 2072 
L 1913 2072 
Q 2238 2072 2444 2201 
Q 2650 2331 2650 2563 
Q 2650 2794 2444 2917 
Q 2238 3041 1913 3041 
L 1156 3041 
z
M 581 3500 
L 1950 3500 
Q 2566 3500 2897 3275 
Q 3228 3050 3228 2634 
Q 3228 2313 3059 2123 
Q 2891 1934 2559 1888 
Q 2956 1813 3175 1575 
Q 3394 1338 3394 981 
Q 3394 513 3033 256 
Q 2672 0 2003 0 
L 581 0 
L 581 3500 
z
" transform="scale(0.015625)"/>
        <path id="DejaVuSans-3df" d="M 3909 3500 
L 4484 3500 
L 4484 0 
L 3909 0 
L 3909 3500 
z
M 4197 3584 
L 4197 3584 
z
M 2781 1038 
Q 2781 1319 2576 1466 
Q 2372 1613 1978 1613 
L 1159 1613 
L 1159 459 
L 1978 459 
Q 2372 459 2576 607 
Q 2781 756 2781 1038 
z
M 581 3500 
L 1159 3500 
L 1159 2072 
L 2003 2072 
Q 2672 2072 3033 1817 
Q 3394 1563 3394 1038 
Q 3394 513 3033 256 
Q 2672 0 2003 0 
L 581 0 
L 581 3500 
z
" transform="scale(0.015625)"/>
        <path id="DejaVuSans-3dc" d="M 3216 459 
L 4697 459 
L 4697 3500 
L 5275 3500 
L 5275 0 
L 581 0 
L 581 3500 
L 1159 3500 
L 1159 459 
L 2638 459 
L 2638 3500 
L 3216 3500 
L 3216 459 
z
" transform="scale(0.015625)"/>
        <path id="DejaVuSans-3d1" d="M 581 3500 
L 1159 3500 
L 1159 2072 
L 3025 2072 
L 3025 3500 
L 3603 3500 
L 3603 0 
L 3025 0 
L 3025 1613 
L 1159 1613 
L 1159 0 
L 581 0 
L 581 3500 
z
" transform="scale(0.015625)"/>
        <path id="DejaVuSans-3e3" d="M 1181 2491 
Q 1181 2231 1381 2084 
Q 1581 1938 1953 1938 
L 2728 1938 
L 2728 3041 
L 1953 3041 
Q 1581 3041 1381 2897 
Q 1181 2753 1181 2491 
z
M 363 0 
L 1431 1534 
Q 1069 1616 828 1830 
Q 588 2044 588 2491 
Q 588 2997 923 3248 
Q 1259 3500 1938 3500 
L 3306 3500 
L 3306 0 
L 2728 0 
L 2728 1478 
L 2013 1478 
L 981 0 
L 363 0 
z
" transform="scale(0.015625)"/>
        <path id="DejaVuSans-5f" d="M 1344 4891 
L 1344 -1509 
L 813 -1509 
L 813 4891 
L 1344 4891 
z
" transform="scale(0.015625)"/>
        <path id="DejaVuSans-5b" d="M 3513 3500 
L 2247 1797 
L 3578 0 
L 2900 0 
L 1881 1375 
L 863 0 
L 184 0 
L 1544 1831 
L 300 3500 
L 978 3500 
L 1906 2253 
L 2834 3500 
L 3513 3500 
z
" transform="scale(0.015625)"/>
       </defs>
       <use xlink:href="#DejaVuSans-3d3"/>
       <use xlink:href="#DejaVuSans-3d4" transform="translate(65.375 0)"/>
       <use xlink:href="#DejaVuSans-3c9" transform="translate(128.859375 0)"/>
       <use xlink:href="#DejaVuSans-3c6" transform="translate(190.390625 0)"/>
       <use xlink:href="#DejaVuSans-3df" transform="translate(249.328125 0)"/>
       <use xlink:href="#DejaVuSans-3dc" transform="translate(328.28125 0)"/>
       <use xlink:href="#DejaVuSans-3c9" transform="translate(419.78125 0)"/>
       <use xlink:href="#DejaVuSans-3d1" transform="translate(481.3125 0)"/>
       <use xlink:href="#DejaVuSans-3cc" transform="translate(546.6875 0)"/>
       <use xlink:href="#DejaVuSans-3e3" transform="translate(611.671875 0)"/>
       <use xlink:href="#DejaVuSans-3" transform="translate(671.828125 0)"/>
       <use xlink:href="#DejaVuSans-5f" transform="translate(703.609375 0)"/>
       <use xlink:href="#DejaVuSans-5b" transform="translate(737.296875 0)"/>
       <use xlink:href="#DejaVuSans-5f" transform="translate(796.484375 0)"/>
      </g>
     </g>
    </g>
    <g id="xtick_3">
     <g id="line2d_3">
      <g>
       <use xlink:href="#meea67c2f69" x="602.513695" y="337.758276" style="stroke: #000000; stroke-width: 0.8"/>
      </g>
     </g>
     <g id="text_3">
      <!-- Resolved превышение -->
      <g transform="translate(538.890726 354.217631) scale(0.11 -0.11)">
       <defs>
        <path id="DejaVuSans-35" d="M 2841 2188 
Q 3044 2119 3236 1894 
Q 3428 1669 3622 1275 
L 4263 0 
L 3584 0 
L 2988 1197 
Q 2756 1666 2539 1819 
Q 2322 1972 1947 1972 
L 1259 1972 
L 1259 0 
L 628 0 
L 628 4666 
L 2053 4666 
Q 2853 4666 3247 4331 
Q 3641 3997 3641 3322 
Q 3641 2881 3436 2590 
Q 3231 2300 2841 2188 
z
M 1259 4147 
L 1259 2491 
L 2053 2491 
Q 2509 2491 2742 2702 
Q 2975 2913 2975 3322 
Q 2975 3731 2742 3939 
Q 2509 4147 2053 4147 
L 1259 4147 
z
" transform="scale(0.015625)"/>
       </defs>
       <use xlink:href="#DejaVuSans-35"/>
       <use xlink:href="#DejaVuSans-48" transform="translate(65 0)"/>
       <use xlink:href="#DejaVuSans-56" transform="translate(126.53125 0)"/>
       <use xlink:href="#DejaVuSans-52" transform="translate(178.625 0)"/>
       <use xlink:href="#DejaVuSans-4f" transform="translate(239.8125 0)"/>
       <use xlink:href="#DejaVuSans-59" transform="translate(267.59375 0)"/>
       <use xlink:href="#DejaVuSans-48" transform="translate(326.78125 0)"/>
       <use xlink:href="#DejaVuSans-47" transform="translate(388.3125 0)"/>
       <use xlink:href="#DejaVuSans-3" transform="translate(451.796875 0)"/>
       <use xlink:href="#DejaVuSans-3d3" transform="translate(483.578125 0)"/>
       <use xlink:href="#DejaVuSans-3d4" transform="translate(548.953125 0)"/>
       <use xlink:href="#DejaVuSans-3c9" transform="translate(612.4375 0)"/>
       <use xlink:href="#DejaVuSans-3c6" transform="translate(673.96875 0)"/>
       <use xlink:href="#DejaVuSans-3df" transform="translate(732.90625 0)"/>
       <use xlink:href="#DejaVuSans-3dc" transform="translate(811.859375 0)"/>
       <use xlink:href="#DejaVuSans-3c9" transform="translate(903.359375 0)"/>
       <use xlink:href="#DejaVuSans-3d1" transform="translate(964.890625 0)"/>
       <use xlink:href="#DejaVuSans-3cc" transform="translate(1030.265625 0)"/>
       <use xlink:href="#DejaVuSans-3c9" transform="translate(1095.25 0)"/>
      </g>
      <!-- |x| &gt; 0.24 + 10⁻¹² м -->
      <g transform="translate(546.88807 367.468764) scale(0.11 -0.11)">
       <defs>
        <path id="DejaVuSans-21" d="M 678 3150 
L 678 3719 
L 4684 2266 
L 4684 1747 
L 678 294 
L 678 863 
L 3897 2003 
L 678 3150 
z
" transform="scale(0.015625)"/>
        <path id="DejaVuSans-13" d="M 2034 4250 
Q 1547 4250 1301 3770 
Q 1056 3291 1056 2328 
Q 1056 1369 1301 889 
Q 1547 409 2034 409 
Q 2525 409 2770 889 
Q 3016 1369 3016 2328 
Q 3016 3291 2770 3770 
Q 2525 4250 2034 4250 
z
M 2034 4750 
Q 2819 4750 3233 4129 
Q 3647 3509 3647 2328 
Q 3647 1150 3233 529 
Q 2819 -91 2034 -91 
Q 1250 -91 836 529 
Q 422 1150 422 2328 
Q 422 3509 836 4129 
Q 1250 4750 2034 4750 
z
" transform="scale(0.015625)"/>
        <path id="DejaVuSans-11" d="M 684 794 
L 1344 794 
L 1344 0 
L 684 0 
L 684 794 
z
" transform="scale(0.015625)"/>
        <path id="DejaVuSans-15" d="M 1228 531 
L 3431 531 
L 3431 0 
L 469 0 
L 469 531 
Q 828 903 1448 1529 
Q 2069 2156 2228 2338 
Q 2531 2678 2651 2914 
Q 2772 3150 2772 3378 
Q 2772 3750 2511 3984 
Q 2250 4219 1831 4219 
Q 1534 4219 1204 4116 
Q 875 4013 500 3803 
L 500 4441 
Q 881 4594 1212 4672 
Q 1544 4750 1819 4750 
Q 2544 4750 2975 4387 
Q 3406 4025 3406 3419 
Q 3406 3131 3298 2873 
Q 3191 2616 2906 2266 
Q 2828 2175 2409 1742 
Q 1991 1309 1228 531 
z
" transform="scale(0.015625)"/>
        <path id="DejaVuSans-17" d="M 2419 4116 
L 825 1625 
L 2419 1625 
L 2419 4116 
z
M 2253 4666 
L 3047 4666 
L 3047 1625 
L 3713 1625 
L 3713 1100 
L 3047 1100 
L 3047 0 
L 2419 0 
L 2419 1100 
L 313 1100 
L 313 1709 
L 2253 4666 
z
" transform="scale(0.015625)"/>
        <path id="DejaVuSans-e" d="M 2944 4013 
L 2944 2272 
L 4684 2272 
L 4684 1741 
L 2944 1741 
L 2944 0 
L 2419 0 
L 2419 1741 
L 678 1741 
L 678 2272 
L 2419 2272 
L 2419 4013 
L 2944 4013 
z
" transform="scale(0.015625)"/>
        <path id="DejaVuSans-14" d="M 794 531 
L 1825 531 
L 1825 4091 
L 703 3866 
L 703 4441 
L 1819 4666 
L 2450 4666 
L 2450 531 
L 3481 531 
L 3481 0 
L 794 0 
L 794 531 
z
" transform="scale(0.015625)"/>
        <path id="DejaVuSans-b56" d="M 428 3359 
L 2950 3359 
L 2950 3063 
L 428 3063 
L 428 3359 
z
" transform="scale(0.015625)"/>
        <path id="DejaVuSans-7b" d="M 488 2431 
L 1125 2431 
L 1125 4341 
L 428 4213 
L 428 4575 
L 1147 4697 
L 1575 4697 
L 1575 2431 
L 2216 2431 
L 2216 2088 
L 488 2088 
L 488 2431 
z
" transform="scale(0.015625)"/>
        <path id="DejaVuSans-74" d="M 838 2444 
L 2163 2444 
L 2163 2088 
L 294 2088 
L 294 2431 
Q 400 2528 597 2703 
Q 1672 3656 1672 3950 
Q 1672 4156 1509 4282 
Q 1347 4409 1081 4409 
Q 919 4409 728 4354 
Q 538 4300 313 4191 
L 313 4575 
Q 553 4663 761 4706 
Q 969 4750 1147 4750 
Q 1600 4750 1872 4544 
Q 2144 4338 2144 4000 
Q 2144 3566 1109 2678 
Q 934 2528 838 2444 
z
" transform="scale(0.015625)"/>
        <path id="DejaVuSans-3d0" d="M 581 3500 
L 1422 3500 
L 2416 1156 
L 3413 3500 
L 4247 3500 
L 4247 0 
L 3669 0 
L 3669 2950 
L 2703 672 
L 2128 672 
L 1159 2950 
L 1159 0 
L 581 0 
L 581 3500 
z
" transform="scale(0.015625)"/>
       </defs>
       <use xlink:href="#DejaVuSans-5f"/>
       <use xlink:href="#DejaVuSans-5b" transform="translate(33.6875 0)"/>
       <use xlink:href="#DejaVuSans-5f" transform="translate(92.875 0)"/>
       <use xlink:href="#DejaVuSans-3" transform="translate(126.5625 0)"/>
       <use xlink:href="#DejaVuSans-21" transform="translate(158.34375 0)"/>
       <use xlink:href="#DejaVuSans-3" transform="translate(242.140625 0)"/>
       <use xlink:href="#DejaVuSans-13" transform="translate(273.921875 0)"/>
       <use xlink:href="#DejaVuSans-11" transform="translate(337.546875 0)"/>
       <use xlink:href="#DejaVuSans-15" transform="translate(369.328125 0)"/>
       <use xlink:href="#DejaVuSans-17" transform="translate(432.953125 0)"/>
       <use xlink:href="#DejaVuSans-3" transform="translate(496.578125 0)"/>
       <use xlink:href="#DejaVuSans-e" transform="translate(528.359375 0)"/>
       <use xlink:href="#DejaVuSans-3" transform="translate(612.15625 0)"/>
       <use xlink:href="#DejaVuSans-14" transform="translate(643.9375 0)"/>
       <use xlink:href="#DejaVuSans-13" transform="translate(707.5625 0)"/>
       <use xlink:href="#DejaVuSans-b56" transform="translate(771.1875 0)"/>
       <use xlink:href="#DejaVuSans-7b" transform="translate(823.96875 0)"/>
       <use xlink:href="#DejaVuSans-74" transform="translate(864.0625 0)"/>
       <use xlink:href="#DejaVuSans-3" transform="translate(904.15625 0)"/>
       <use xlink:href="#DejaVuSans-3d0" transform="translate(935.9375 0)"/>
      </g>
     </g>
    </g>
   </g>
   <g id="matplotlib.axis_2">
    <g id="ytick_1">
     <g id="line2d_4">
      <path d="M 45.99649 337.758276 
L 716.99976 337.758276 
" clip-path="url(#pb2c85a5046)" style="fill: none; stroke: #b0b0b0; stroke-opacity: 0.2; stroke-width: 0.8; stroke-linecap: square"/>
     </g>
     <g id="line2d_5">
      <defs>
       <path id="md3e8e71cd0" d="M 0 0 
L -3.5 0 
" style="stroke: #000000; stroke-width: 0.8"/>
      </defs>
      <g>
       <use xlink:href="#md3e8e71cd0" x="45.99649" y="337.758276" style="stroke: #000000; stroke-width: 0.8"/>
      </g>
     </g>
     <g id="text_4">
      <!-- 0 -->
      <g transform="translate(31.99774 341.936987) scale(0.11 -0.11)">
       <use xlink:href="#DejaVuSans-13"/>
      </g>
     </g>
    </g>
    <g id="ytick_2">
     <g id="line2d_6">
      <path d="M 45.99649 275.912977 
L 716.99976 275.912977 
" clip-path="url(#pb2c85a5046)" style="fill: none; stroke: #b0b0b0; stroke-opacity: 0.2; stroke-width: 0.8; stroke-linecap: square"/>
     </g>
     <g id="line2d_7">
      <g>
       <use xlink:href="#md3e8e71cd0" x="45.99649" y="275.912977" style="stroke: #000000; stroke-width: 0.8"/>
      </g>
     </g>
     <g id="text_5">
      <!-- 20 -->
      <g transform="translate(24.99899 280.091688) scale(0.11 -0.11)">
       <use xlink:href="#DejaVuSans-15"/>
       <use xlink:href="#DejaVuSans-13" transform="translate(63.625 0)"/>
      </g>
     </g>
    </g>
    <g id="ytick_3">
     <g id="line2d_8">
      <path d="M 45.99649 214.067679 
L 716.99976 214.067679 
" clip-path="url(#pb2c85a5046)" style="fill: none; stroke: #b0b0b0; stroke-opacity: 0.2; stroke-width: 0.8; stroke-linecap: square"/>
     </g>
     <g id="line2d_9">
      <g>
       <use xlink:href="#md3e8e71cd0" x="45.99649" y="214.067679" style="stroke: #000000; stroke-width: 0.8"/>
      </g>
     </g>
     <g id="text_6">
      <!-- 40 -->
      <g transform="translate(24.99899 218.24639) scale(0.11 -0.11)">
       <use xlink:href="#DejaVuSans-17"/>
       <use xlink:href="#DejaVuSans-13" transform="translate(63.625 0)"/>
      </g>
     </g>
    </g>
    <g id="ytick_4">
     <g id="line2d_10">
      <path d="M 45.99649 152.222381 
L 716.99976 152.222381 
" clip-path="url(#pb2c85a5046)" style="fill: none; stroke: #b0b0b0; stroke-opacity: 0.2; stroke-width: 0.8; stroke-linecap: square"/>
     </g>
     <g id="line2d_11">
      <g>
       <use xlink:href="#md3e8e71cd0" x="45.99649" y="152.222381" style="stroke: #000000; stroke-width: 0.8"/>
      </g>
     </g>
     <g id="text_7">
      <!-- 60 -->
      <g transform="translate(24.99899 156.401092) scale(0.11 -0.11)">
       <defs>
        <path id="DejaVuSans-19" d="M 2113 2584 
Q 1688 2584 1439 2293 
Q 1191 2003 1191 1497 
Q 1191 994 1439 701 
Q 1688 409 2113 409 
Q 2538 409 2786 701 
Q 3034 994 3034 1497 
Q 3034 2003 2786 2293 
Q 2538 2584 2113 2584 
z
M 3366 4563 
L 3366 3988 
Q 3128 4100 2886 4159 
Q 2644 4219 2406 4219 
Q 1781 4219 1451 3797 
Q 1122 3375 1075 2522 
Q 1259 2794 1537 2939 
Q 1816 3084 2150 3084 
Q 2853 3084 3261 2657 
Q 3669 2231 3669 1497 
Q 3669 778 3244 343 
Q 2819 -91 2113 -91 
Q 1303 -91 875 529 
Q 447 1150 447 2328 
Q 447 3434 972 4092 
Q 1497 4750 2381 4750 
Q 2619 4750 2861 4703 
Q 3103 4656 3366 4563 
z
" transform="scale(0.015625)"/>
       </defs>
       <use xlink:href="#DejaVuSans-19"/>
       <use xlink:href="#DejaVuSans-13" transform="translate(63.625 0)"/>
      </g>
     </g>
    </g>
    <g id="ytick_5">
     <g id="line2d_12">
      <path d="M 45.99649 90.377083 
L 716.99976 90.377083 
" clip-path="url(#pb2c85a5046)" style="fill: none; stroke: #b0b0b0; stroke-opacity: 0.2; stroke-width: 0.8; stroke-linecap: square"/>
     </g>
     <g id="line2d_13">
      <g>
       <use xlink:href="#md3e8e71cd0" x="45.99649" y="90.377083" style="stroke: #000000; stroke-width: 0.8"/>
      </g>
     </g>
     <g id="text_8">
      <!-- 80 -->
      <g transform="translate(24.99899 94.555794) scale(0.11 -0.11)">
       <defs>
        <path id="DejaVuSans-1b" d="M 2034 2216 
Q 1584 2216 1326 1975 
Q 1069 1734 1069 1313 
Q 1069 891 1326 650 
Q 1584 409 2034 409 
Q 2484 409 2743 651 
Q 3003 894 3003 1313 
Q 3003 1734 2745 1975 
Q 2488 2216 2034 2216 
z
M 1403 2484 
Q 997 2584 770 2862 
Q 544 3141 544 3541 
Q 544 4100 942 4425 
Q 1341 4750 2034 4750 
Q 2731 4750 3128 4425 
Q 3525 4100 3525 3541 
Q 3525 3141 3298 2862 
Q 3072 2584 2669 2484 
Q 3125 2378 3379 2068 
Q 3634 1759 3634 1313 
Q 3634 634 3220 271 
Q 2806 -91 2034 -91 
Q 1263 -91 848 271 
Q 434 634 434 1313 
Q 434 1759 690 2068 
Q 947 2378 1403 2484 
z
M 1172 3481 
Q 1172 3119 1398 2916 
Q 1625 2713 2034 2713 
Q 2441 2713 2670 2916 
Q 2900 3119 2900 3481 
Q 2900 3844 2670 4047 
Q 2441 4250 2034 4250 
Q 1625 4250 1398 4047 
Q 1172 3844 1172 3481 
z
" transform="scale(0.015625)"/>
       </defs>
       <use xlink:href="#DejaVuSans-1b"/>
       <use xlink:href="#DejaVuSans-13" transform="translate(63.625 0)"/>
      </g>
     </g>
    </g>
    <g id="ytick_6">
     <g id="line2d_14">
      <path d="M 45.99649 28.531785 
L 716.99976 28.531785 
" clip-path="url(#pb2c85a5046)" style="fill: none; stroke: #b0b0b0; stroke-opacity: 0.2; stroke-width: 0.8; stroke-linecap: square"/>
     </g>
     <g id="line2d_15">
      <g>
       <use xlink:href="#md3e8e71cd0" x="45.99649" y="28.531785" style="stroke: #000000; stroke-width: 0.8"/>
      </g>
     </g>
     <g id="text_9">
      <!-- 100 -->
      <g transform="translate(18.00024 32.710496) scale(0.11 -0.11)">
       <use xlink:href="#DejaVuSans-14"/>
       <use xlink:href="#DejaVuSans-13" transform="translate(63.625 0)"/>
       <use xlink:href="#DejaVuSans-13" transform="translate(127.25 0)"/>
      </g>
     </g>
    </g>
    <g id="text_10">
     <!-- Доля эпизодов, % (n = 980 на режим) -->
     <g transform="translate(11.357662 288.495461) rotate(-90) scale(0.11 -0.11)">
      <defs>
       <path id="DejaVuSans-3a8" d="M 1459 531 
L 3522 531 
L 3522 4134 
L 2006 4134 
L 2006 3472 
Q 2006 1913 1656 878 
Q 1584 666 1459 531 
z
M 538 531 
Q 956 728 1075 1103 
Q 1378 2066 1378 3784 
L 1378 4666 
L 4153 4666 
L 4153 531 
L 4684 531 
L 4684 -1003 
L 4153 -1003 
L 4153 0 
L 847 0 
L 847 -1003 
L 316 -1003 
L 316 531 
L 538 531 
z
" transform="scale(0.015625)"/>
       <path id="DejaVuSans-3d2" d="M 1959 3097 
Q 1497 3097 1228 2736 
Q 959 2375 959 1747 
Q 959 1119 1226 758 
Q 1494 397 1959 397 
Q 2419 397 2687 759 
Q 2956 1122 2956 1747 
Q 2956 2369 2687 2733 
Q 2419 3097 1959 3097 
z
M 1959 3584 
Q 2709 3584 3137 3096 
Q 3566 2609 3566 1747 
Q 3566 888 3137 398 
Q 2709 -91 1959 -91 
Q 1206 -91 779 398 
Q 353 888 353 1747 
Q 353 2609 779 3096 
Q 1206 3584 1959 3584 
z
" transform="scale(0.015625)"/>
       <path id="DejaVuSans-3cf" d="M 238 0 
L 238 478 
Q 806 566 981 959 
Q 1194 1513 1194 2928 
L 1194 3500 
L 3559 3500 
L 3559 0 
L 2984 0 
L 2984 3041 
L 1769 3041 
L 1769 2694 
Q 1769 1344 1494 738 
Q 1200 91 238 0 
z
" transform="scale(0.015625)"/>
       <path id="DejaVuSans-3e1" d="M 353 666 
Q 847 397 1338 397 
Q 1797 397 2125 664 
Q 2453 931 2513 1613 
L 738 1613 
L 738 2072 
L 2494 2072 
Q 2456 2400 2207 2748 
Q 1959 3097 1338 3097 
Q 856 3097 353 2828 
L 353 3366 
Q 844 3584 1363 3584 
Q 2181 3584 2651 3089 
Q 3122 2594 3122 1747 
Q 3122 903 2664 406 
Q 2206 -91 1403 -91 
Q 813 -91 353 134 
L 353 666 
z
" transform="scale(0.015625)"/>
       <path id="DejaVuSans-f" d="M 750 794 
L 1409 794 
L 1409 256 
L 897 -744 
L 494 -744 
L 750 256 
L 750 794 
z
" transform="scale(0.015625)"/>
       <path id="DejaVuSans-8" d="M 4653 2053 
Q 4381 2053 4226 1822 
Q 4072 1591 4072 1178 
Q 4072 772 4226 539 
Q 4381 306 4653 306 
Q 4919 306 5073 539 
Q 5228 772 5228 1178 
Q 5228 1588 5073 1820 
Q 4919 2053 4653 2053 
z
M 4653 2450 
Q 5147 2450 5437 2106 
Q 5728 1763 5728 1178 
Q 5728 594 5436 251 
Q 5144 -91 4653 -91 
Q 4153 -91 3862 251 
Q 3572 594 3572 1178 
Q 3572 1766 3864 2108 
Q 4156 2450 4653 2450 
z
M 1428 4353 
Q 1159 4353 1004 4120 
Q 850 3888 850 3481 
Q 850 3069 1003 2837 
Q 1156 2606 1428 2606 
Q 1700 2606 1854 2837 
Q 2009 3069 2009 3481 
Q 2009 3884 1853 4118 
Q 1697 4353 1428 4353 
z
M 4250 4750 
L 4750 4750 
L 1831 -91 
L 1331 -91 
L 4250 4750 
z
M 1428 4750 
Q 1922 4750 2215 4408 
Q 2509 4066 2509 3481 
Q 2509 2891 2217 2550 
Q 1925 2209 1428 2209 
Q 931 2209 642 2551 
Q 353 2894 353 3481 
Q 353 4063 643 4406 
Q 934 4750 1428 4750 
z
" transform="scale(0.015625)"/>
       <path id="DejaVuSans-b" d="M 1984 4856 
Q 1566 4138 1362 3434 
Q 1159 2731 1159 2009 
Q 1159 1288 1364 580 
Q 1569 -128 1984 -844 
L 1484 -844 
Q 1016 -109 783 600 
Q 550 1309 550 2009 
Q 550 2706 781 3412 
Q 1013 4119 1484 4856 
L 1984 4856 
z
" transform="scale(0.015625)"/>
       <path id="DejaVuSans-51" d="M 3513 2113 
L 3513 0 
L 2938 0 
L 2938 2094 
Q 2938 2591 2744 2837 
Q 2550 3084 2163 3084 
Q 1697 3084 1428 2787 
Q 1159 2491 1159 1978 
L 1159 0 
L 581 0 
L 581 3500 
L 1159 3500 
L 1159 2956 
Q 1366 3272 1645 3428 
Q 1925 3584 2291 3584 
Q 2894 3584 3203 3211 
Q 3513 2838 3513 2113 
z
" transform="scale(0.015625)"/>
       <path id="DejaVuSans-20" d="M 678 2906 
L 4684 2906 
L 4684 2381 
L 678 2381 
L 678 2906 
z
M 678 1631 
L 4684 1631 
L 4684 1100 
L 678 1100 
L 678 1631 
z
" transform="scale(0.015625)"/>
       <path id="DejaVuSans-1c" d="M 703 97 
L 703 672 
Q 941 559 1184 500 
Q 1428 441 1663 441 
Q 2288 441 2617 861 
Q 2947 1281 2994 2138 
Q 2813 1869 2534 1725 
Q 2256 1581 1919 1581 
Q 1219 1581 811 2004 
Q 403 2428 403 3163 
Q 403 3881 828 4315 
Q 1253 4750 1959 4750 
Q 2769 4750 3195 4129 
Q 3622 3509 3622 2328 
Q 3622 1225 3098 567 
Q 2575 -91 1691 -91 
Q 1453 -91 1209 -44 
Q 966 3 703 97 
z
M 1959 2075 
Q 2384 2075 2632 2365 
Q 2881 2656 2881 3163 
Q 2881 3666 2632 3958 
Q 2384 4250 1959 4250 
Q 1534 4250 1286 3958 
Q 1038 3666 1038 3163 
Q 1038 2656 1286 2365 
Q 1534 2075 1959 2075 
z
" transform="scale(0.015625)"/>
       <path id="DejaVuSans-3ca" d="M 2597 3500 
L 3169 3500 
L 3169 1856 
L 4697 3500 
L 5366 3500 
L 4109 2153 
L 5547 0 
L 4931 0 
L 3753 1769 
L 3169 1141 
L 3169 0 
L 2597 0 
L 2597 1141 
L 2013 1769 
L 834 0 
L 219 0 
L 1656 2153 
L 400 3500 
L 1069 3500 
L 2597 1856 
L 2597 3500 
z
" transform="scale(0.015625)"/>
       <path id="DejaVuSans-c" d="M 513 4856 
L 1013 4856 
Q 1481 4119 1714 3412 
Q 1947 2706 1947 2009 
Q 1947 1309 1714 600 
Q 1481 -109 1013 -844 
L 513 -844 
Q 928 -128 1133 580 
Q 1338 1288 1338 2009 
Q 1338 2731 1133 3434 
Q 928 4138 513 4856 
z
" transform="scale(0.015625)"/>
      </defs>
      <use xlink:href="#DejaVuSans-3a8"/>
      <use xlink:href="#DejaVuSans-3d2" transform="translate(78.125 0)"/>
      <use xlink:href="#DejaVuSans-3cf" transform="translate(139.3125 0)"/>
      <use xlink:href="#DejaVuSans-3e3" transform="translate(203.234375 0)"/>
      <use xlink:href="#DejaVuSans-3" transform="translate(263.390625 0)"/>
      <use xlink:href="#DejaVuSans-3e1" transform="translate(295.171875 0)"/>
      <use xlink:href="#DejaVuSans-3d3" transform="translate(350.0625 0)"/>
      <use xlink:href="#DejaVuSans-3cc" transform="translate(415.4375 0)"/>
      <use xlink:href="#DejaVuSans-3cb" transform="translate(480.421875 0)"/>
      <use xlink:href="#DejaVuSans-3d2" transform="translate(533.59375 0)"/>
      <use xlink:href="#DejaVuSans-3c8" transform="translate(594.78125 0)"/>
      <use xlink:href="#DejaVuSans-3d2" transform="translate(663.921875 0)"/>
      <use xlink:href="#DejaVuSans-3c6" transform="translate(725.109375 0)"/>
      <use xlink:href="#DejaVuSans-f" transform="translate(784.046875 0)"/>
      <use xlink:href="#DejaVuSans-3" transform="translate(815.828125 0)"/>
      <use xlink:href="#DejaVuSans-8" transform="translate(847.609375 0)"/>
      <use xlink:href="#DejaVuSans-3" transform="translate(942.625 0)"/>
      <use xlink:href="#DejaVuSans-b" transform="translate(974.40625 0)"/>
      <use xlink:href="#DejaVuSans-51" transform="translate(1013.421875 0)"/>
      <use xlink:href="#DejaVuSans-3" transform="translate(1076.796875 0)"/>
      <use xlink:href="#DejaVuSans-20" transform="translate(1108.578125 0)"/>
      <use xlink:href="#DejaVuSans-3" transform="translate(1192.375 0)"/>
      <use xlink:href="#DejaVuSans-1c" transform="translate(1224.15625 0)"/>
      <use xlink:href="#DejaVuSans-1b" transform="translate(1287.78125 0)"/>
      <use xlink:href="#DejaVuSans-13" transform="translate(1351.40625 0)"/>
      <use xlink:href="#DejaVuSans-3" transform="translate(1415.03125 0)"/>
      <use xlink:href="#DejaVuSans-3d1" transform="translate(1446.8125 0)"/>
      <use xlink:href="#DejaVuSans-3c4" transform="translate(1512.1875 0)"/>
      <use xlink:href="#DejaVuSans-3" transform="translate(1573.46875 0)"/>
      <use xlink:href="#DejaVuSans-3d4" transform="translate(1605.25 0)"/>
      <use xlink:href="#DejaVuSans-3c9" transform="translate(1668.734375 0)"/>
      <use xlink:href="#DejaVuSans-3ca" transform="translate(1730.265625 0)"/>
      <use xlink:href="#DejaVuSans-3cc" transform="translate(1820.359375 0)"/>
      <use xlink:href="#DejaVuSans-3d0" transform="translate(1885.34375 0)"/>
      <use xlink:href="#DejaVuSans-c" transform="translate(1960.78125 0)"/>
     </g>
    </g>
   </g>
   <g id="patch_9">
    <path d="M 45.99649 337.758276 
L 45.99649 19.25499 
" style="fill: none; stroke: #000000; stroke-width: 0.8; stroke-linejoin: miter; stroke-linecap: square"/>
   </g>
   <g id="patch_10">
    <path d="M 45.99649 337.758276 
L 716.99976 337.758276 
" style="fill: none; stroke: #000000; stroke-width: 0.8; stroke-linejoin: miter; stroke-linecap: square"/>
   </g>
   <g id="text_11">
    <!-- 45.0% -->
    <g transform="translate(101.017644 192.963777) scale(0.11 -0.11)">
     <defs>
      <path id="DejaVuSans-18" d="M 691 4666 
L 3169 4666 
L 3169 4134 
L 1269 4134 
L 1269 2991 
Q 1406 3038 1543 3061 
Q 1681 3084 1819 3084 
Q 2600 3084 3056 2656 
Q 3513 2228 3513 1497 
Q 3513 744 3044 326 
Q 2575 -91 1722 -91 
Q 1428 -91 1123 -41 
Q 819 9 494 109 
L 494 744 
Q 775 591 1075 516 
Q 1375 441 1709 441 
Q 2250 441 2565 725 
Q 2881 1009 2881 1497 
Q 2881 1984 2565 2268 
Q 2250 2553 1709 2553 
Q 1456 2553 1204 2497 
Q 953 2441 691 2322 
L 691 4666 
z
" transform="scale(0.015625)"/>
     </defs>
     <use xlink:href="#DejaVuSans-17"/>
     <use xlink:href="#DejaVuSans-18" transform="translate(63.625 0)"/>
     <use xlink:href="#DejaVuSans-11" transform="translate(127.25 0)"/>
     <use xlink:href="#DejaVuSans-13" transform="translate(159.03125 0)"/>
     <use xlink:href="#DejaVuSans-8" transform="translate(222.65625 0)"/>
    </g>
   </g>
   <g id="text_12">
    <!-- 40.2% -->
    <g transform="translate(322.033214 207.794027) scale(0.11 -0.11)">
     <use xlink:href="#DejaVuSans-17"/>
     <use xlink:href="#DejaVuSans-13" transform="translate(63.625 0)"/>
     <use xlink:href="#DejaVuSans-11" transform="translate(127.25 0)"/>
     <use xlink:href="#DejaVuSans-15" transform="translate(159.03125 0)"/>
     <use xlink:href="#DejaVuSans-8" transform="translate(222.65625 0)"/>
    </g>
   </g>
   <g id="text_13">
    <!-- 59.7% -->
    <g transform="translate(543.048783 147.526415) scale(0.11 -0.11)">
     <defs>
      <path id="DejaVuSans-1a" d="M 525 4666 
L 3525 4666 
L 3525 4397 
L 1831 0 
L 1172 0 
L 2766 4134 
L 525 4134 
L 525 4666 
z
" transform="scale(0.015625)"/>
     </defs>
     <use xlink:href="#DejaVuSans-18"/>
     <use xlink:href="#DejaVuSans-1c" transform="translate(63.625 0)"/>
     <use xlink:href="#DejaVuSans-11" transform="translate(127.25 0)"/>
     <use xlink:href="#DejaVuSans-1a" transform="translate(159.03125 0)"/>
     <use xlink:href="#DejaVuSans-8" transform="translate(222.65625 0)"/>
    </g>
   </g>
   <g id="text_14">
    <!-- 81.2% -->
    <g transform="translate(185.00356 80.948058) scale(0.11 -0.11)">
     <use xlink:href="#DejaVuSans-1b"/>
     <use xlink:href="#DejaVuSans-14" transform="translate(63.625 0)"/>
     <use xlink:href="#DejaVuSans-11" transform="translate(127.25 0)"/>
     <use xlink:href="#DejaVuSans-15" transform="translate(159.03125 0)"/>
     <use xlink:href="#DejaVuSans-8" transform="translate(222.65625 0)"/>
    </g>
   </g>
   <g id="text_15">
    <!-- 81.2% -->
    <g transform="translate(406.01913 80.948058) scale(0.11 -0.11)">
     <use xlink:href="#DejaVuSans-1b"/>
     <use xlink:href="#DejaVuSans-14" transform="translate(63.625 0)"/>
     <use xlink:href="#DejaVuSans-11" transform="translate(127.25 0)"/>
     <use xlink:href="#DejaVuSans-15" transform="translate(159.03125 0)"/>
     <use xlink:href="#DejaVuSans-8" transform="translate(222.65625 0)"/>
    </g>
   </g>
   <g id="text_16">
    <!-- 0.0% -->
    <g transform="translate(630.534075 332.115698) scale(0.11 -0.11)">
     <use xlink:href="#DejaVuSans-13"/>
     <use xlink:href="#DejaVuSans-11" transform="translate(63.625 0)"/>
     <use xlink:href="#DejaVuSans-13" transform="translate(95.40625 0)"/>
     <use xlink:href="#DejaVuSans-8" transform="translate(159.03125 0)"/>
    </g>
   </g>
   <g id="text_17">
    <!-- Успех и безопасность — отдельные показатели -->
    <g transform="translate(214.25 13.25499) scale(0.132 -0.132)">
     <defs>
      <path id="DejaVuSans-3d6" d="M 188 3500 
L 3541 3500 
L 3541 3041 
L 2147 3041 
L 2147 0 
L 1581 0 
L 1581 3041 
L 188 3041 
L 188 3500 
z
" transform="scale(0.015625)"/>
      <path id="DejaVuSans-3e0" d="M 2781 1038 
Q 2781 1319 2576 1466 
Q 2372 1613 1978 1613 
L 1159 1613 
L 1159 459 
L 1978 459 
Q 2372 459 2576 607 
Q 2781 756 2781 1038 
z
M 581 3500 
L 1159 3500 
L 1159 2072 
L 2003 2072 
Q 2672 2072 3033 1817 
Q 3394 1563 3394 1038 
Q 3394 513 3033 256 
Q 2672 0 2003 0 
L 581 0 
L 581 3500 
z
" transform="scale(0.015625)"/>
      <path id="DejaVuSans-af6" d="M 313 1978 
L 6088 1978 
L 6088 1528 
L 313 1528 
L 313 1978 
z
" transform="scale(0.015625)"/>
      <path id="DejaVuSans-3ce" d="M 581 3500 
L 1153 3500 
L 1153 1856 
L 2775 3500 
L 3481 3500 
L 2144 2147 
L 3653 0 
L 3009 0 
L 1769 1766 
L 1153 1141 
L 1153 0 
L 581 0 
L 581 3500 
z
" transform="scale(0.015625)"/>
     </defs>
     <use xlink:href="#DejaVuSans-3b7"/>
     <use xlink:href="#DejaVuSans-3d5" transform="translate(60.9375 0)"/>
     <use xlink:href="#DejaVuSans-3d3" transform="translate(115.921875 0)"/>
     <use xlink:href="#DejaVuSans-3c9" transform="translate(181.296875 0)"/>
     <use xlink:href="#DejaVuSans-3d9" transform="translate(242.828125 0)"/>
     <use xlink:href="#DejaVuSans-3" transform="translate(302.015625 0)"/>
     <use xlink:href="#DejaVuSans-3cc" transform="translate(333.796875 0)"/>
     <use xlink:href="#DejaVuSans-3" transform="translate(398.78125 0)"/>
     <use xlink:href="#DejaVuSans-3c5" transform="translate(430.5625 0)"/>
     <use xlink:href="#DejaVuSans-3c9" transform="translate(492.234375 0)"/>
     <use xlink:href="#DejaVuSans-3cb" transform="translate(553.765625 0)"/>
     <use xlink:href="#DejaVuSans-3d2" transform="translate(606.9375 0)"/>
     <use xlink:href="#DejaVuSans-3d3" transform="translate(668.125 0)"/>
     <use xlink:href="#DejaVuSans-3c4" transform="translate(733.5 0)"/>
     <use xlink:href="#DejaVuSans-3d5" transform="translate(794.78125 0)"/>
     <use xlink:href="#DejaVuSans-3d1" transform="translate(849.765625 0)"/>
     <use xlink:href="#DejaVuSans-3d2" transform="translate(915.140625 0)"/>
     <use xlink:href="#DejaVuSans-3d5" transform="translate(976.328125 0)"/>
     <use xlink:href="#DejaVuSans-3d6" transform="translate(1031.3125 0)"/>
     <use xlink:href="#DejaVuSans-3e0" transform="translate(1089.5625 0)"/>
     <use xlink:href="#DejaVuSans-3" transform="translate(1148.5 0)"/>
     <use xlink:href="#DejaVuSans-af6" transform="translate(1180.28125 0)"/>
     <use xlink:href="#DejaVuSans-3" transform="translate(1280.28125 0)"/>
     <use xlink:href="#DejaVuSans-3d2" transform="translate(1312.0625 0)"/>
     <use xlink:href="#DejaVuSans-3d6" transform="translate(1373.25 0)"/>
     <use xlink:href="#DejaVuSans-3c8" transform="translate(1431.5 0)"/>
     <use xlink:href="#DejaVuSans-3c9" transform="translate(1500.640625 0)"/>
     <use xlink:href="#DejaVuSans-3cf" transform="translate(1562.171875 0)"/>
     <use xlink:href="#DejaVuSans-3e0" transform="translate(1626.09375 0)"/>
     <use xlink:href="#DejaVuSans-3d1" transform="translate(1685.03125 0)"/>
     <use xlink:href="#DejaVuSans-3df" transform="translate(1750.40625 0)"/>
     <use xlink:href="#DejaVuSans-3c9" transform="translate(1829.359375 0)"/>
     <use xlink:href="#DejaVuSans-3" transform="translate(1890.890625 0)"/>
     <use xlink:href="#DejaVuSans-3d3" transform="translate(1922.671875 0)"/>
     <use xlink:href="#DejaVuSans-3d2" transform="translate(1988.046875 0)"/>
     <use xlink:href="#DejaVuSans-3ce" transform="translate(2049.234375 0)"/>
     <use xlink:href="#DejaVuSans-3c4" transform="translate(2109.640625 0)"/>
     <use xlink:href="#DejaVuSans-3cb" transform="translate(2170.921875 0)"/>
     <use xlink:href="#DejaVuSans-3c4" transform="translate(2224.09375 0)"/>
     <use xlink:href="#DejaVuSans-3d6" transform="translate(2285.375 0)"/>
     <use xlink:href="#DejaVuSans-3c9" transform="translate(2343.625 0)"/>
     <use xlink:href="#DejaVuSans-3cf" transform="translate(2405.15625 0)"/>
     <use xlink:href="#DejaVuSans-3cc" transform="translate(2469.078125 0)"/>
    </g>
   </g>
   <g id="legend_1">
    <g id="patch_11">
     <path d="M 630.708197 61.056709 
L 709.29976 61.056709 
Q 711.49976 61.056709 711.49976 58.856709 
L 711.49976 26.95499 
Q 711.49976 24.75499 709.29976 24.75499 
L 630.708197 24.75499 
Q 628.508197 24.75499 628.508197 26.95499 
L 628.508197 58.856709 
Q 628.508197 61.056709 630.708197 61.056709 
z
" style="fill: #ffffff; opacity: 0.8; stroke: #cccccc; stroke-linejoin: miter"/>
    </g>
    <g id="patch_12">
     <path d="M 632.908197 37.513271 
L 654.908197 37.513271 
L 654.908197 29.813271 
L 632.908197 29.813271 
z
" style="fill: #697586"/>
    </g>
    <g id="text_18">
     <!-- filter off -->
     <g transform="translate(663.708197 37.513271) scale(0.11 -0.11)">
      <defs>
       <path id="DejaVuSans-13af" d="M 3431 3500 
L 3431 0 
L 2853 0 
L 2853 3053 
L 1275 3053 
L 1275 0 
L 697 0 
L 697 3053 
L 147 3053 
L 147 3500 
L 697 3500 
L 697 3744 
Q 697 4316 967 4589 
Q 1238 4863 1797 4863 
L 2375 4863 
L 2375 4384 
L 1825 4384 
Q 1516 4384 1395 4259 
Q 1275 4134 1275 3809 
L 1275 3500 
L 3431 3500 
z
M 2853 4856 
L 3431 4856 
L 3431 4128 
L 2853 4128 
L 2853 4856 
z
" transform="scale(0.015625)"/>
       <path id="DejaVuSans-57" d="M 1172 4494 
L 1172 3500 
L 2356 3500 
L 2356 3053 
L 1172 3053 
L 1172 1153 
Q 1172 725 1289 603 
Q 1406 481 1766 481 
L 2356 481 
L 2356 0 
L 1766 0 
Q 1100 0 847 248 
Q 594 497 594 1153 
L 594 3053 
L 172 3053 
L 172 3500 
L 594 3500 
L 594 4494 
L 1172 4494 
z
" transform="scale(0.015625)"/>
       <path id="DejaVuSans-13ae" d="M 4531 4863 
L 4531 4384 
L 3981 4384 
Q 3672 4384 3551 4259 
Q 3431 4134 3431 3809 
L 3431 3500 
L 4378 3500 
L 4378 3053 
L 3431 3053 
L 3431 0 
L 2853 0 
L 2853 3053 
L 1275 3053 
L 1275 0 
L 697 0 
L 697 3053 
L 147 3053 
L 147 3500 
L 697 3500 
L 697 3744 
Q 697 4328 969 4595 
Q 1241 4863 1831 4863 
L 2375 4863 
L 2375 4384 
L 1825 4384 
Q 1516 4384 1394 4259 
Q 1275 4134 1275 3809 
L 1275 3500 
L 2853 3500 
L 2853 3744 
Q 2853 4328 3125 4595 
Q 3397 4863 3988 4863 
L 4531 4863 
z
" transform="scale(0.015625)"/>
      </defs>
      <use xlink:href="#DejaVuSans-13af"/>
      <use xlink:href="#DejaVuSans-4f" transform="translate(62.984375 0)"/>
      <use xlink:href="#DejaVuSans-57" transform="translate(90.765625 0)"/>
      <use xlink:href="#DejaVuSans-48" transform="translate(129.96875 0)"/>
      <use xlink:href="#DejaVuSans-55" transform="translate(191.5 0)"/>
      <use xlink:href="#DejaVuSans-3" transform="translate(232.609375 0)"/>
      <use xlink:href="#DejaVuSans-52" transform="translate(264.390625 0)"/>
      <use xlink:href="#DejaVuSans-13ae" transform="translate(325.578125 0)"/>
     </g>
    </g>
    <g id="patch_13">
     <path d="M 632.908197 54.014131 
L 654.908197 54.014131 
L 654.908197 46.314131 
L 632.908197 46.314131 
z
" style="fill: #14886c"/>
    </g>
    <g id="text_19">
     <!-- filter on -->
     <g transform="translate(663.708197 54.014131) scale(0.11 -0.11)">
      <use xlink:href="#DejaVuSans-13af"/>
      <use xlink:href="#DejaVuSans-4f" transform="translate(62.984375 0)"/>
      <use xlink:href="#DejaVuSans-57" transform="translate(90.765625 0)"/>
      <use xlink:href="#DejaVuSans-48" transform="translate(129.96875 0)"/>
      <use xlink:href="#DejaVuSans-55" transform="translate(191.5 0)"/>
      <use xlink:href="#DejaVuSans-3" transform="translate(232.609375 0)"/>
      <use xlink:href="#DejaVuSans-52" transform="translate(264.390625 0)"/>
      <use xlink:href="#DejaVuSans-51" transform="translate(325.578125 0)"/>
     </g>
    </g>
   </g>
  </g>
 </g>
 <defs>
  <clipPath id="pb2c85a5046">
   <rect x="45.99649" y="19.25499" width="671.00327" height="318.503286"/>
  </clipPath>
 </defs>
</svg>
